<?xml version="1.0" encoding="UTF-8"?>
<!DOCTYPE svg PUBLIC "-//W3C//DTD SVG 1.1//EN" "http://www.w3.org/Graphics/SVG/1.1/DTD/svg11.dtd">
<!-- Creator: CorelDRAW -->
<svg xmlns="http://www.w3.org/2000/svg" xml:space="preserve" width="25px" height="25px" version="1.1" style="shape-rendering:geometricPrecision; text-rendering:geometricPrecision; image-rendering:optimizeQuality; fill-rule:evenodd; clip-rule:evenodd"
viewBox="0 0 0.146 0.146"
 xmlns:xlink="http://www.w3.org/1999/xlink"
 xmlns:xodm="http://www.corel.com/coreldraw/odm/2003">
 <defs>
  <style type="text/css">
   <![CDATA[
    .fil0 {fill:black;fill-rule:nonzero}
    .fil1 {fill:white;fill-rule:nonzero}
   ]]>
  </style>
 </defs>
 <g id="Слой_x0020_1">
  <metadata id="CorelCorpID_0Corel-Layer"/>
  <path class="fil0" d="M0.059 0c0.042,0 0.042,0.002 0.047,0.006 0.003,0.002 0.008,0.003 0.027,0.004 0.001,0 0.002,0.001 0.003,0.002 0.001,0 0.01,0.014 0.01,0.036 0,0.022 -0.007,0.031 -0.007,0.032 -0.001,0.001 -0.002,0.002 -0.004,0.002 -0.015,0 -0.037,0.02 -0.051,0.054 -0.002,0.006 -0.003,0.01 -0.012,0.01 -0.005,0 -0.011,-0.004 -0.014,-0.009 -0.006,-0.009 -0.003,-0.03 0,-0.041 -0.009,0 -0.026,0 -0.035,0 -0.011,0 -0.018,-0.007 -0.018,-0.017 -0.001,-0.003 0,-0.007 0.001,-0.009 -0.003,-0.003 -0.006,-0.007 -0.006,-0.011 0,-0.007 0.004,-0.011 0.006,-0.014 0,-0.002 -0.001,-0.004 -0.001,-0.007 0,-0.007 0.006,-0.012 0.009,-0.014 0,-0.002 -0.001,-0.005 0,-0.008 0.002,-0.011 0.019,-0.016 0.045,-0.016l0 0z"/>
  <path class="fil1" d="M0.13 0.02c-0.016,-0.002 -0.025,-0.004 -0.029,-0.007 -0.004,-0.003 -0.003,-0.004 -0.042,-0.004 -0.011,0 -0.034,0.001 -0.036,0.009 -0.001,0.003 0.003,0.006 0.003,0.006 0.001,0.002 0,0.005 -0.003,0.006 0,0 -0.009,0.003 -0.009,0.008 0,0.004 0.002,0.006 0.002,0.006 0.001,0.002 0.001,0.005 -0.001,0.006 0,0 -0.006,0.004 -0.006,0.008 0,0.004 0.005,0.007 0.005,0.007 0.002,0.001 0.002,0.002 0.003,0.003 0,0.001 0,0.003 -0.001,0.004 0,0 -0.002,0.004 -0.002,0.007 0,0.007 0.008,0.008 0.009,0.008 0.012,0 0.042,-0.001 0.042,-0.001 0.001,0 0.002,0.001 0.003,0.003 0.001,0.001 0.001,0.002 0.001,0.004 -0.005,0.013 -0.007,0.033 -0.003,0.04 0.001,0.002 0.001,0.004 0.006,0.004 0.001,0 0.002,-0.001 0.004,-0.005 0.015,-0.036 0.038,-0.057 0.056,-0.059 0.002,-0.004 0.005,-0.011 0.005,-0.025 0,-0.014 -0.004,-0.025 -0.007,-0.028l0 0z"/>
 </g>
</svg>
