<?xml version="1.0" encoding="UTF-8"?>
<!DOCTYPE svg PUBLIC "-//W3C//DTD SVG 1.1//EN" "http://www.w3.org/Graphics/SVG/1.1/DTD/svg11.dtd">
<!-- Creator: CorelDRAW -->
<svg xmlns="http://www.w3.org/2000/svg" xml:space="preserve" width="25px" height="25px" version="1.1" style="shape-rendering:geometricPrecision; text-rendering:geometricPrecision; image-rendering:optimizeQuality; fill-rule:evenodd; clip-rule:evenodd"
viewBox="0 0 0.148 0.148"
 xmlns:xlink="http://www.w3.org/1999/xlink"
 xmlns:xodm="http://www.corel.com/coreldraw/odm/2003">
 <defs>
  <style type="text/css">
   <![CDATA[
    .fil0 {fill:black;fill-rule:nonzero}
    .fil1 {fill:white;fill-rule:nonzero}
   ]]>
  </style>
 </defs>
 <g id="Слой_x0020_1">
  <metadata id="CorelCorpID_0Corel-Layer"/>
  <path class="fil0" d="M0.088 0.148c-0.042,0 -0.042,-0.002 -0.047,-0.006 -0.003,-0.002 -0.008,-0.003 -0.028,-0.004 -0.001,-0.001 -0.002,-0.001 -0.003,-0.002 0,-0.001 -0.01,-0.014 -0.01,-0.037 0,-0.022 0.007,-0.032 0.007,-0.032 0.001,-0.001 0.002,-0.002 0.004,-0.002 0.016,0 0.037,-0.02 0.052,-0.055 0.002,-0.006 0.003,-0.01 0.012,-0.01 0.005,0 0.011,0.004 0.014,0.009 0.006,0.009 0.003,0.031 0,0.042 0.01,0 0.027,0 0.035,0 0.012,0 0.019,0.007 0.02,0.017 0,0.003 -0.001,0.007 -0.002,0.009 0.003,0.003 0.006,0.007 0.006,0.011 0,0.007 -0.004,0.012 -0.006,0.014 0,0.002 0.001,0.005 0.001,0.007 0,0.008 -0.005,0.012 -0.009,0.015 0,0.002 0.001,0.005 0,0.008 -0.002,0.011 -0.019,0.016 -0.046,0.016l0 0z"/>
  <path class="fil1" d="M0.016 0.128c0.017,0.002 0.025,0.003 0.03,0.007 0.004,0.003 0.003,0.004 0.042,0.004 0.012,0 0.035,-0.001 0.037,-0.009 0.001,-0.003 -0.003,-0.006 -0.003,-0.006 -0.001,-0.003 0,-0.005 0.003,-0.006 0,0 0.009,-0.004 0.009,-0.009 0,-0.003 -0.002,-0.005 -0.002,-0.005 -0.001,-0.002 -0.001,-0.005 0.001,-0.007 0,0 0.006,-0.003 0.006,-0.008 0,-0.004 -0.005,-0.007 -0.005,-0.007 -0.002,-0.001 -0.002,-0.002 -0.003,-0.003 0,-0.001 0,-0.003 0.001,-0.004 0,0 0.003,-0.004 0.002,-0.007 0,-0.008 -0.008,-0.008 -0.01,-0.008 -0.011,0 -0.041,0 -0.041,0 -0.002,0 -0.003,-0.001 -0.004,-0.002 -0.001,-0.001 -0.001,-0.003 -0.001,-0.004 0.005,-0.013 0.008,-0.034 0.003,-0.041 -0.001,-0.002 -0.001,-0.004 -0.006,-0.004 0,0 -0.002,0.001 -0.004,0.005 -0.015,0.037 -0.038,0.058 -0.057,0.06 -0.002,0.004 -0.005,0.011 -0.005,0.025 0,0.015 0.005,0.026 0.007,0.029l0 0z"/>
 </g>
</svg>
